<svg width="27" height="22" viewBox="0 0 27 22" fill="none" xmlns="http://www.w3.org/2000/svg">
<path d="M5.36932 10.6251H3.57955V4.72245H1.19318V2.36137H8.35227V4.72245H5.96591V8.02205L17.6746 4.91842L16.9826 2.36137H13.125V0.000287397H17.8715C18.1386 -0.00554351 18.4 0.0774975 18.6137 0.236108C18.8275 0.394718 18.9812 0.619719 19.0503 0.875067L20.9034 7.71747L18.5981 8.32781L18.2927 7.19922L5.36932 10.6251ZM4.77273 18.8889C5.40563 18.8889 6.01261 18.6402 6.46014 18.1974C6.90767 17.7546 7.15909 17.154 7.15909 16.5278C7.15909 15.9016 6.90767 15.3011 6.46014 14.8583C6.01261 14.4155 5.40563 14.1668 4.77273 14.1668C4.13982 14.1668 3.53284 14.4155 3.08531 14.8583C2.63778 15.3011 2.38636 15.9016 2.38636 16.5278C2.38636 17.154 2.63778 17.7546 3.08531 18.1974C3.53284 18.6402 4.13982 18.8889 4.77273 18.8889ZM4.77273 21.25C3.50692 21.25 2.29296 20.7525 1.3979 19.8669C0.50284 18.9813 0 17.7802 0 16.5278C0 15.2754 0.50284 14.0743 1.3979 13.1888C2.29296 12.3032 3.50692 11.8057 4.77273 11.8057C6.03853 11.8057 7.2525 12.3032 8.14756 13.1888C9.04262 14.0743 9.54545 15.2754 9.54545 16.5278C9.54545 17.7802 9.04262 18.9813 8.14756 19.8669C7.2525 20.7525 6.03853 21.25 4.77273 21.25ZM20.2841 18.8889C21.2334 18.8889 22.1439 18.5158 22.8152 17.8516C23.4865 17.1874 23.8636 16.2866 23.8636 15.3473C23.8636 14.408 23.4865 13.5072 22.8152 12.843C22.1439 12.1788 21.2334 11.8057 20.2841 11.8057C19.3347 11.8057 18.4243 12.1788 17.753 12.843C17.0817 13.5072 16.7045 14.408 16.7045 15.3473C16.7045 16.2866 17.0817 17.1874 17.753 17.8516C18.4243 18.5158 19.3347 18.8889 20.2841 18.8889ZM20.2841 21.25C18.7018 21.25 17.1844 20.6281 16.0656 19.5211C14.9467 18.4142 14.3182 16.9128 14.3182 15.3473C14.3182 13.7818 14.9467 12.2804 16.0656 11.1735C17.1844 10.0665 18.7018 9.4446 20.2841 9.4446C21.8664 9.4446 23.3838 10.0665 24.5026 11.1735C25.6215 12.2804 26.25 13.7818 26.25 15.3473C26.25 16.9128 25.6215 18.4142 24.5026 19.5211C23.3838 20.6281 21.8664 21.25 20.2841 21.25Z" fill="#1D1D1D"/>
</svg>
